# xmcd
#
# Track frame offsets:
#	150
#	21169
#	33616
#	68747
#	100512
#	112518
#	126698
#	145591
#	155786
#	177576
#	204799
#	245074
#	267006
#	280001
#	289900
#
# Disc length: 4050 seconds
#
# Revision: 2
# Processed by: cddbd v1.5.2PL0 Copyright (c) Steve Scherf et al.
# Submitted via: audiograbber 1.83.01
#
DISCID=d70fd00f
DTITLE=Interpretes Varios - Too Much Blues III
DYEAR=1996
DGENRE=Blues
TTITLE0=Steve Ray Vaughan - The Sky Is Crying
TTITLE1=Canned Heat - Got My Mojo Working
TTITLE2=Joe Cocker - St. James Infirmary
TTITLE3=Ten Years After - Good Morning Little School Girl
TTITLE4=Allstars and Jeff Beck - Steelin'
TTITLE5=Bo Diddley - You Can't Judge A Book For Cover
TTITLE6=Muddy Waters - I'm Ready
TTITLE7=Irma Thomas - Wish Someone Would Care
TTITLE8=Robert Cray - I'd Rather Be A Wino
TTITLE9=Luther Allison - Early In The Morning
TTITLE10=Tonky Blues Band and Mick Taylor - The Sky Is Crying
TTITLE11=Vargas Blues Band - Blues Latino
TTITLE12=Yardbirds - New York City
TTITLE13=John Maryall - I'm Your Witch Doctor
TTITLE14=Louis Armstrong - St. Louis Blues
EXTD=ID3G: 0
EXTT0=
EXTT1=
EXTT2=
EXTT3=
EXTT4=
EXTT5=
EXTT6=
EXTT7=
EXTT8=
EXTT9=
EXTT10=
EXTT11=
EXTT12=
EXTT13=
EXTT14=
PLAYORDER=
